<?xml version="1.0" encoding="UTF-8"?>
<svg id="_图层_1" data-name="图层 1" xmlns="http://www.w3.org/2000/svg" xmlns:xlink="http://www.w3.org/1999/xlink" viewBox="0 0 900 900">
  <defs>
    <style>
      .cls-1 {
        fill: url(#radial-gradient-13);
      }

      .cls-1, .cls-2, .cls-3, .cls-4, .cls-5, .cls-6, .cls-7, .cls-8, .cls-9, .cls-10, .cls-11, .cls-12, .cls-13, .cls-14, .cls-15 {
        stroke-width: 0px;
      }

      .cls-2 {
        fill: url(#radial-gradient-12);
      }

      .cls-3 {
        fill: url(#radial-gradient-8);
      }

      .cls-3, .cls-4 {
        fill-rule: evenodd;
      }

      .cls-4 {
        fill: #fff;
      }

      .cls-5 {
        fill: url(#radial-gradient-2);
      }

      .cls-6 {
        fill: url(#radial-gradient-7);
      }

      .cls-7 {
        fill: url(#radial-gradient-5);
      }

      .cls-8 {
        fill: url(#radial-gradient);
      }

      .cls-9 {
        fill: url(#radial-gradient-14);
      }

      .cls-10 {
        fill: url(#radial-gradient-10);
      }

      .cls-11 {
        fill: url(#radial-gradient-6);
      }

      .cls-12 {
        fill: url(#radial-gradient-9);
      }

      .cls-13 {
        fill: url(#radial-gradient-3);
      }

      .cls-14 {
        fill: url(#radial-gradient-11);
      }

      .cls-15 {
        fill: url(#radial-gradient-4);
      }
    </style>
    <radialGradient id="radial-gradient" cx="862.97" cy="371.96" fx="862.97" fy="371.96" r="6.39" gradientUnits="userSpaceOnUse">
      <stop offset="0" stop-color="#fff"/>
      <stop offset="1" stop-color="#ccc"/>
    </radialGradient>
    <radialGradient id="radial-gradient-2" cx="862.38" cy="372.5" fx="862.38" fy="372.5" r="12.5" xlink:href="#radial-gradient"/>
    <radialGradient id="radial-gradient-3" cx="265.53" cy="534.42" fx="265.53" fy="534.42" r="544.26" gradientUnits="userSpaceOnUse">
      <stop offset="0" stop-color="#fff"/>
      <stop offset="1" stop-color="#ccc"/>
    </radialGradient>
    <radialGradient id="radial-gradient-4" cx="265.53" fx="265.53" r="544.26" xlink:href="#radial-gradient-3"/>
    <radialGradient id="radial-gradient-5" cx="265.53" cy="534.42" fx="265.53" fy="534.42" r="544.26" xlink:href="#radial-gradient-3"/>
    <radialGradient id="radial-gradient-6" cx="265.53" cy="534.42" fx="265.53" fy="534.42" r="544.26" xlink:href="#radial-gradient-3"/>
    <radialGradient id="radial-gradient-7" r="544.26" xlink:href="#radial-gradient-3"/>
    <radialGradient id="radial-gradient-8" cx="280.21" cy="364.55" fx="280.21" fy="364.55" r="292.3" xlink:href="#radial-gradient"/>
    <radialGradient id="radial-gradient-9" cx="276.57" cy="502.3" fx="276.57" fy="502.3" r="100.67" xlink:href="#radial-gradient-3"/>
    <radialGradient id="radial-gradient-10" cx="305.02" cy="395.74" fx="305.02" fy="395.74" r="50.95" xlink:href="#radial-gradient-3"/>
    <radialGradient id="radial-gradient-11" cx="637.77" cy="418.7" fx="637.77" fy="418.7" r="19.04" xlink:href="#radial-gradient-3"/>
    <radialGradient id="radial-gradient-12" cx="699" cy="418.7" fx="699" fy="418.7" r="16.71" xlink:href="#radial-gradient-3"/>
    <radialGradient id="radial-gradient-13" cx="760.24" cy="418.7" fx="760.24" fy="418.7" r="19.42" xlink:href="#radial-gradient-3"/>
    <radialGradient id="radial-gradient-14" cx="821.48" cy="418.7" fx="821.48" fy="418.7" r="19.42" xlink:href="#radial-gradient-3"/>
  </defs>
  <g>
    <path class="cls-8" d="m858.06,364.69c.98-.2,2.39-.31,3.73-.31,2.08,0,3.42.38,4.36,1.23.76.67,1.18,1.7,1.18,2.86,0,1.99-1.25,3.31-2.84,3.85v.07c1.16.4,1.86,1.48,2.21,3.04.49,2.1.85,3.55,1.16,4.14h-2.01c-.25-.42-.58-1.72-1.01-3.6-.45-2.08-1.25-2.86-3.02-2.93h-1.83v6.53h-1.94v-14.87Zm1.94,6.86h1.99c2.08,0,3.4-1.14,3.4-2.86,0-1.94-1.41-2.79-3.46-2.82-.94,0-1.61.09-1.92.18v5.5Z"/>
    <path class="cls-5" d="m862.38,385c-6.89,0-12.5-5.61-12.5-12.5s5.61-12.5,12.5-12.5,12.5,5.61,12.5,12.5-5.61,12.5-12.5,12.5Zm0-23.6c-6.12,0-11.1,4.98-11.1,11.1s4.98,11.1,11.1,11.1,11.1-4.98,11.1-11.1-4.98-11.1-11.1-11.1Z"/>
  </g>
  <g>
    <g>
      <path class="cls-13" d="m251.3,596.86v-9.46c4.11,1.05,8.14,1.86,12.08,2.43,3.94.57,7.88.85,11.82.85,8.75,0,15.29-1.44,19.63-4.33,4.33-2.89,6.5-7.31,6.5-13.25,0-7.71-6.13-14.85-18.39-21.41-.61-.35-1.09-.61-1.44-.78l-7.35-4.07c-9.55-5.17-16.2-10.1-19.97-14.78-3.76-4.68-5.64-10.18-5.64-16.48,0-10.85,3.89-19.3,11.68-25.34,7.79-6.04,18.78-9.06,32.96-9.06,3.06,0,6.46.17,10.18.52,3.72.36,8.03.88,12.93,1.59v9.71c-7.53-.87-12.68-1.44-15.43-1.7-2.75-.26-4.75-.4-5.97-.4-7.53,0-13.29,1.32-17.27,3.95-3.98,2.63-5.98,6.39-5.98,11.29,0,6.13,5.44,12.3,16.29,18.52.7.43,1.23.73,1.58.91l11.55,6.96c10.33,6.04,17.11,11.32,20.36,15.82,3.24,4.51,4.86,10.09,4.86,16.74,0,11.03-4.07,19.61-12.21,25.74-8.14,6.13-19.66,9.19-34.54,9.19-4.12,0-8.49-.26-13.13-.79-4.64-.52-9.68-1.31-15.1-2.36Z"/>
      <path class="cls-15" d="m417.51,598.96v46.75h-25.61v-161.91h40.05c19.34,0,34.86,5.44,46.54,16.28,11.69,10.85,17.53,25.08,17.53,42.68s-5.63,31.04-16.88,41.63c-11.25,10.58-26.07,15.89-44.45,15.89-2.8,0-6.95-.26-12.47-.78-2.2-.27-3.77-.45-4.73-.53Zm0-9.98c4.2.53,7.48.88,9.85,1.06,2.36.18,4.37.26,6.04.26,12.26,0,21.4-3.5,27.45-10.5,6.04-7.01,9.07-17.64,9.07-31.9,0-18.57-3.29-32.22-9.85-40.98-6.56-8.75-16.9-13.12-30.99-13.12h-11.55v95.2Z"/>
      <path class="cls-7" d="m547.9,598.96h-25.6v-115.16h46.22c14.35,0,25.25,2.71,32.7,8.14,7.44,5.43,11.17,13.31,11.17,23.63,0,7.53-2.23,13.7-6.7,18.52-4.46,4.82-10.64,7.71-18.51,8.67l29.81,56.2h-30.59l-27.45-57.52c9.28-.17,16.09-2.1,20.42-5.78,4.33-3.68,6.5-9.45,6.5-17.33,0-8.58-2.12-14.9-6.37-18.97-4.24-4.07-10.84-6.11-19.76-6.11h-11.82v105.7Z"/>
      <path class="cls-11" d="m642.45,504.55c0-8.59,1.38-14.18,4.14-16.81,2.76-2.63,8.56-3.94,17.4-3.94h54.89v9.98h-39.27c-4.64,0-7.73.65-9.26,1.97-1.52,1.31-2.29,3.72-2.29,7.22v29.02h41.63v11.29h-41.63v36.64c0,3.5.79,5.88,2.37,7.16,1.58,1.26,5.25,1.89,11.03,1.89h38.74v9.98h-60.28c-6.47,0-11.01-1.35-13.59-4.07-2.59-2.71-3.88-8.27-3.88-16.67v-73.67Z"/>
      <path class="cls-6" d="m776.39,598.44l-45.43-114.64h26.92l32.05,80.76,33.61-80.76h11.81l-66.44,161.91h-12.61l20.09-47.28Z"/>
    </g>
    <path class="cls-3" d="m211.56,504.19c1.32-.55,2.67-1.34,4.01-2.19.01-5.09.29-9.95.72-14.67-.07.1-.15.21-.23.29-2.75,3.66-6.51,10.61-4.5,16.57Zm271.81-146.63c9.73-3.23,24.62-20.61,25.76-30.59-10.41,13.3-27.49,21.32-44.76,26.87,5.85-3.92,14.26-10.14,18.26-15.01-.52-.91-1.19-1.17-2.65-1.59,2.08-.22,4.1-.42,5.44-.54,4.05-4.56,20.15-23.2,21.99-40.54-11.23,17.48-25.28,33.34-43.04,43.39,2.93-2.48,27.7-25.17,26.02-32.92,5.66-4.48,12.31-18.51,11.04-25.68-15.54,24.12-37.17,40.4-53.73,50.99-12.93,1.47-46.98,22.82-58.37,28.47-7.68,3.81-15.93,7.5-24.49,10.28-12.45,4.02-44.55,14.96-57.09,10.8-1.4-2.25-8-7.23-10.13-9.36-.31,1.26-.09,2.21-.46,3.03-2.16-.69-4.25-1.03-6.06-2.11-1.73-1.03-2.9-3.08-4.74-3.17-.82.92.91,1.55.54,2.9-2.96-1.16-6.06.1-8.69-.26-5.96-.81-11.51,2.52-17.38,3.42-7.98,1.24-17.88,1.59-25.81-.26-7.05-1.64-13.73-4.2-20.54-6.06-10.42-2.83-19.17-7.34-29.24-10.68-11.05-3.69-27.52-10.51-42.69-19.2-19.29-11.05-37.09-22.81-45.8-23.95-16.76-7.67-45.86-31.28-61.4-61.5.95,9.36,9.67,40.65,21.13,44.67,2.52,7.05,7.05,12.69,12.11,16.96-15.72-11.55-30.59-25.14-40.55-42.14,3.61,16.2,17.46,36.92,24.75,44.1,2.01.91,3.93,1.51,6.32,2.25-1.93-.12-3.62.55-4.79,1.05,4.75,5.49,9.95,10.64,15.85,15.54-16.63-5.5-33.55-17.5-45.03-30.55,9.36,22.07,26.66,36.19,45.3,48.98-14.76-.94-27.64-3.79-37.65-9.49,5.74,9.75,26.17,22.92,33.44,20.81-.88.9-2.22,1.83-3.51,2.14,4.33,2.87,10.02,4.44,15.63,6.02-9.25,2.19-18.89,4.18-30.81,3.42,5.92,6.55,27.33,12.24,37.11,10.98-6.83,2.7-17.61,5.54-25.79,6.67,9.63,4.24,23.41,6.13,34.65,6.28-4.88,3.29-10.47,5.26-16.74,7.15,7.63,3.15,17.4,4.32,27.41,4.28-3.22,1.99-17.36,8.19-21.36,8.37,8.84,4.12,32.19,2.8,38.09,1.17-3.96,3.4-9.14,5.65-14.12,8.03,6.3,2.02,21.91-.62,25.91-1.65-3.9,4.26-8.83,8.2-14.05,11.13,11.6-.72,22.82-2.49,32.66-5.79-1.82,1.9-12.98,10.54-15.8,12.38,5.77,1.51,23.37-2.6,30.38-6.3-3.19,4.94-8.45,10.23-14.06,13.67,7.65-.62,20.63-4.09,26.01-7.86-3.18,4-9.61,12.08-15.21,16.28,9.49-2.54,18.72-6.74,25.55-11.06-2.02,5.28-6.33,9.85-11.85,15.01,9.95-2.08,18.3-8.74,24.6-13.14-1.99,4.49-6.02,10.3-9.86,14.46,7.55-3.13,15.57-8.61,19.81-12.51-1.44,4.63-4.2,8.11-6.91,11.46,5.97-2.2,11.86-5.81,14.28-8.04-.25,1.04-1.24,6.35-2.95,9.09,1.68-.68,3.27-1.54,4.79-2.52,2.85-10.5,7.04-19.8,12.62-27.88,11.41-16.5,25.99-24.75,43.76-24.75s32.48,8.26,43.84,24.75c5.24,7.61,9.21,16.35,12.03,26.1.99.5,2,.98,3.03,1.4-2-2.7-3.15-5.4-3.43-7.64,3.09,3.37,7.46,6.41,13.17,9.22-2.18-3.41-4.18-6.31-5-9.22,2.3,2.66,10.65,8.38,15.01,8.96-2.99-3.16-6.46-9.52-8.43-13.69,3.41,3.38,15.83,9.87,21.59,8.95-2.75-2.28-5.82-5.24-7.11-7.9,2.56,1.69,16.91,7.55,20.8,5.8-4.5-2.44-13.36-11.21-15.75-14.97,7.3,5.01,16.58,10.1,27.87,10.23-5.42-3.6-9.97-7.58-13.96-12.38,8.27,2.88,17.8,5.7,28.06,6.58-7.02-4.24-12-7.95-16.48-12.64,7.49,4.01,19.53,4.86,30.02,5-5.39-3.46-10.58-7.53-13.69-11.59,6.9,2.46,18.44,5.12,26.06,4.46-5.34-2.79-12.32-7.1-17.11-11.04,10.53,2.94,23.98,4.68,36.6,3.69-6.84-2.9-13.11-6.38-18.69-10.54,8.07.37,18.5.43,23.96-2.37-6.13-.9-13.55-4.72-17.13-7.04,1.62-.19,3.24-.1,4.77-.42.12-.61-.29-1.41-.34-1.74,7.17,4.37,25.85,2.37,30.34-1.33-8.92.17-19.51-2.27-26.07-6.31,6.52-.56,10.33-.74,15.49-1.91.12-.88-.15-1.61-.35-2.22,4.21,3.76,19.96-1.63,23.56-5.88-7.63,2.02-23.23-.35-33.71-2.1,7-1.5,15.01-3.99,20.88-6.8.02-.74-.24-1.8-.6-2.68,10.21,5.26,25.81-9.96,26.33-15.28-10.08,4.34-24.41,7.15-36.12,8.13,7.16-2.86,13.21-6.02,17.47-10.98Zm-268.73,159.1c.54-.11,1.03-.29,1.55-.43-.11-1.3-.26-2.55-.34-3.87-.42,1.42-.83,2.85-1.21,4.31Z"/>
    <path class="cls-12" d="m276.43,604.17c-13.59,0-26.36-2.45-38.3-7.35-11.94-4.9-22.67-12.11-32.19-21.63-9.42-9.42-16.58-20.34-21.48-32.77-4.9-12.43-7.35-25.78-7.35-40.05s2.47-27.91,7.43-40.33c4.95-12.44,12.18-23.3,21.7-32.62,9.51-9.33,20.29-16.48,32.33-21.48,12.04-5,24.66-7.5,37.86-7.5,10.58,0,20.88,1.64,30.88,4.95,9.99,3.3,19.37,8.1,28.11,14.41,13.1,9.52,23.16,21.39,30.15,35.61,6.98,14.23,10.48,29.88,10.48,46.96,0,14.37-2.5,27.75-7.5,40.12-5.01,12.38-12.27,23.28-21.77,32.7-9.61,9.52-20.39,16.73-32.33,21.63-11.94,4.9-24.61,7.35-38.01,7.35Zm60.88-101.8c0-26.6-5.68-48.15-17.04-64.66-11.36-16.5-25.97-24.75-43.84-24.75s-32.35,8.26-43.76,24.75c-11.41,16.51-17.11,38.06-17.11,64.66s5.7,48.02,17.11,64.51c11.41,16.51,25.99,24.76,43.76,24.76s32.35-8.23,43.76-24.68c11.41-16.45,17.11-37.98,17.11-64.59Z"/>
    <g>
      <path class="cls-4" d="m355.57,411.83l-.1-1.26c-.38-4.53-3.1-7.53-7.01-7.93l.29-1.89c1.44-9.08-5.03-13.96-10.73-18.27-2.73-2.06-5.31-4.02-6.94-6.23-4.19-6.3-11.17-12.17-16.79-16.87l-3.65-3.07.49,4.49c.05.45.02,1.06-.05,1.61-5.75-1.41-11.58-4.41-14.23-6.77l-2.91,2.01c.13.34.3.69.48,1.04-2.76-1.13-5.15-1.34-7.11-1.34-1.6,0-3.19.15-4.95.33-1.61.17-3.19.31-4.85.31l-.92,3.5c.73.3,1.65.89,2.55,1.48.13.09.27.18.39.26-1.66.44-3.43.8-5.17,1.14-2.49.5-5.06,1.01-7.4,1.78l-2.38.77,1.48,2.02c.61.85,1.25,1.4,1.85,1.83-6.27,2.44-10.47,5.66-13.1,9.98l-1.97,3.23,3.75-.48c.38-.04.78-.07,1.16-.07.98,0,1.96.15,2.87.42-3.07,2.14-5.22,4.76-7.2,8.63l-2.02,3.94,4.21-1.39c1.25-.41,2.82-.65,4.22-.65.89,0,1.67.09,2.29.28-2.09,2.56-4.38,5.57-4.86,8.13l-.94,5.11,3.92-3.41c.83-.72,2.94-1.21,5.15-1.21.42,0,.82.02,1.19.05-.95.81-1.75,1.76-2.77,3.22l-2.17,3.11,3.79-.26c.78-.06,1.66-.13,2.6-.21,2.29-.2,4.89-.42,7.16-.42.69,0,1.27.03,1.76.05-.32.38-.65.76-.98,1.15-1.23,1.43-2.51,2.92-3.41,4.89l-1.59,3.48,3.7-.97c2.07-.55,3.97-.86,5.87-.99-.61.83-1.13,1.89-1.42,3.35l-.65,3.44,3.19-1.45c2.14-.97,4.84-1.52,7.8-1.61l1.2-.04.43-1.12c1.78-4.56,8.02-5.07,13.53-5.51,1.21-.09,2.37-.19,3.41-.32l.17-2.38c3.39.57,6.46,1.35,8.7,2.11l.73-1.6c3.03,1.6,5.86,3.65,8.56,5.78l2.73,2.16.07-1.07c4.64,2.87,8.97,8,8.14,13.17-.4.14-.82.28-1.31.39l-4.78,1.14,4.38,2.24c3.33,1.7,6.63,2.57,9.8,2.57,6.47,0,11.91-3.62,14.2-9.47,2.23-5.69.75-11.91-3.86-16.36Z"/>
      <path class="cls-10" d="m357.32,411.02l-.05-.6c-.42-5.21-3.38-8.15-6.76-9.21l.03-.19c1.6-10.17-5.63-15.63-11.43-20.01-2.6-1.96-5.06-3.82-6.59-5.86-4.33-6.49-11.37-12.41-17.03-17.16l-.22-.18-6.93-5.82.87,8c-4.64-1.49-9.08-3.87-11.17-5.73l-3.57,2.48c-2.24-.83-4.59-1.22-7.16-1.22-1.71,0-3.36.16-4.97.33-1.57.15-3.19.31-4.8.31h-.24l-1.19,6c-.68.14-1.38.28-2.09.43-2.54.51-5.17,1.03-7.62,1.83l-4.76,1.56,2.96,4.04c.04.05.07.1.11.15-4.17,1.94-8.55,4.88-11.44,9.65l-3.92,6.45,6.73-.86c-1.62,1.73-3,3.76-4.27,6.25l-4.05,7.88,8.41-2.77c.59-.19,1.46-.4,2.42-.5-1.57,2.16-2.74,4.21-3.11,6.2l-1.82,9.69,7.76-6.27c.12-.1.43-.25.91-.39,0,0-.01.02-.02.02l-4.34,6.22,7.57-.52c.81-.05,1.71-.14,2.68-.21,1.55-.14,3.23-.28,4.84-.36-.78,1.01-1.54,2.13-2.15,3.47l-3.18,6.97,7.41-1.94c.82-.21,1.61-.4,2.39-.54-.07.26-.13.52-.19.8l-1.31,6.87,6.38-2.88c1.93-.88,4.39-1.38,7.1-1.47l2.41-.06.87-2.25c1.26-3.24,5.97-3.87,11.98-4.35,1.25-.1,2.43-.2,3.5-.33l.17-2.3c3.06.53,5.83,1.24,7.88,1.95l.72-1.58c2.83,1.53,5.5,3.46,8.04,5.47l5.47,4.31.07-1.24c2.72,2.35,4.72,5.43,4.76,8.4l-9.55,2.27,8.76,4.48c3.58,1.84,7.16,2.77,10.63,2.77,7.13,0,13.37-4.17,15.9-10.62,2.42-6.19.96-12.93-3.81-17.84Zm-58.77-2.93c-3.93,0-7.77.48-10.95,1.74,2.59-.13,4.92-.23,7.18-.23,4.18,0,8.12.37,13.03,1.74-5.91.75-15.76.19-18.4,6.97-3.14.09-6.09.69-8.5,1.77.55-2.87,2.17-3.57,3.68-5.48-.76-.05-1.52-.07-2.28-.07-2.53,0-5.12.31-8.1,1.1,1.45-3.17,4.15-5.09,5.81-8.04-1.14-.47-2.88-.63-4.84-.63-3.28,0-7.19.45-9.89.63,1.77-2.54,2.7-3.28,5.48-4.82-1.02-.86-3.16-1.3-5.4-1.3-2.47,0-5.05.54-6.33,1.65.49-2.63,3.72-6.39,5.8-8.92-1.06-1.21-3.01-1.64-5.02-1.64-1.72,0-3.49.32-4.8.75,2.32-4.53,4.84-7.22,9.33-9.59-1.73-1.35-4.2-2.11-6.61-2.11-.47,0-.93.03-1.38.09,3.2-5.27,8.74-8.21,15.17-10.26-1.56-1.73-2.8-1.92-4.01-3.57,5.38-1.76,12.13-2.15,16.96-4.47-.03,0-.07,0-.1,0-2.04,0-4.82-2.7-7.1-3.62h.27c1.75,0,3.41-.16,5.01-.32,1.61-.15,3.17-.32,4.75-.32,3.55,0,7.17.81,11.46,4.25.21-1.56-2.34-4.36-3.13-6.41,3.24,2.86,10.4,6.35,16.77,7.57.41-.94.65-2.8.52-3.97,5.58,4.69,12.53,10.49,16.62,16.65,5.54,7.51,19.29,11.21,17.4,23.21-.45-.22-2.47.29-2.99.95-1.21.41-2.35,1.01-3.39,1.78-6.01-.14-6.65-9.4-12.36-12.99-3.2-2-5.61-1.45-9.38-2.68.6,2.53,3.59,2.67,6.25,3.12-4.22,7.04-1.48,13.86,4.9,13.86,1.82,0,3.93-.55,6.26-1.81.9.65,1.96,1.13,3.07,1.55-.49.49-.99.97-1.39,1.53-.79-.03-1.87-.3-2.82-.52-1.53-.38-3.04-.74-4.57-.74-1.94,0-3.57.61-4.82,1.79l-3.77,3.56,4.64,2.33c.13.07.29.16.44.26.24.96.37,1.99.3,3.19-5.24-4.13-12.58-9.39-21.56-9.39-.25,0-.5,0-.75.02,5.45,1.53,8.81,2.79,12.49,4.9-4.08-1.41-11.65-3.07-18.95-3.07Zm33.09-7.44c-.59.14-1.15.22-1.66.22-1.32,0-2.25-.48-2.79-1.42-.61-1.07-.8-2.94.17-5.31,1.2,1.18,2.16,2.87,3.18,4.63.35.61.71,1.24,1.1,1.87Zm-.77,16.53l.07-1.33c0-.07-.01-.12,0-.19,3.79,3.62,8.24,9.03,7.88,12.08,0,.07-.05.12-.07.17-.86-4.34-4.23-8.22-7.88-10.73Zm14.35,18.66c-2.72,0-5.74-.72-8.97-2.37,16.19-3.86-3.83-22.43-8.03-24.54.62-.58,1.42-.8,2.32-.8,1.13,0,2.4.32,3.71.64,1.31.32,2.64.64,3.86.64.78,0,1.51-.14,2.16-.48,1.38-2.83,4.46-4.57,7.32-4.57s5.71,1.87,6.07,6.35c-3.17,1.14-7.46,1.17-8.03,4.91.15.03.29.04.43.04,1.02,0,1.9-.72,2.94-1.43,1.04-.71,2.23-1.43,3.86-1.43.39,0,.8.05,1.25.14,9.3,8.61,3.28,22.9-8.88,22.9Z"/>
    </g>
  </g>
  <g>
    <path class="cls-14" d="m651.38,434.8v7.13h-27.22v-46.46h8.64v39.33h18.57Z"/>
    <path class="cls-2" d="m703.34,441.93h-8.68v-46.46h8.68v46.46Z"/>
    <path class="cls-1" d="m754.26,402.34v13.75h17.41v6.91h-17.41v18.93h-8.68v-46.46h29.3v6.88h-20.63Z"/>
    <path class="cls-9" d="m815.5,402.34v12.88h16.26v6.65h-16.26v13.14h20.63v6.91h-29.3v-46.46h29.3v6.88h-20.63Z"/>
  </g>
</svg>